name C:/MyDriveSym/Projects/mobilecap/Data\Session20210820_0002\mocap\ForceDataProcessed\walkingTS3_forces.mot
datacolumns 19
datarows 14
range 0.72950000 0.73600000
endheader 
time	R_ground_force_vx	R_ground_force_vy	R_ground_force_vz	R_ground_force_px	R_ground_force_py	R_ground_force_pz	R_ground_torque_x	R_ground_torque_y	R_ground_torque_z	L_ground_force_vx	L_ground_force_vy	L_ground_force_vz	L_ground_force_px	L_ground_force_py	L_ground_force_pz	L_ground_torque_x	L_ground_torque_y	L_ground_torque_z	
          0.72950000	          1.97153100	         37.06538500	         -1.28505800	          0.40031000	          0.00600000	         -0.15085100	          0.00000000	         -0.43277700	          0.00000000	       -123.07969800	        840.71666400	         23.41682500	          0.88441900	          0.00600000	         -0.28842500	          0.00000000	          0.99798500	          0.00000000	
          0.73000000	          1.80795900	         36.06672800	         -1.28092900	          0.40193500	          0.00600000	         -0.15076000	          0.00000000	         -0.42069600	          0.00000000	       -122.86401500	        840.72646800	         23.47388600	          0.88456400	          0.00600000	         -0.28843700	          0.00000000	          0.99951600	          0.00000000	
          0.73050000	          1.64698000	         35.07988900	         -1.27663800	          0.40362500	          0.00600000	         -0.15066400	          0.00000000	         -0.40865700	          0.00000000	       -122.64554400	        840.72354600	         23.53030600	          0.88470900	          0.00600000	         -0.28845000	          0.00000000	          1.00105600	          0.00000000	
          0.73100000	          1.48857500	         34.10481300	         -1.27218600	          0.40538100	          0.00600000	         -0.15056400	          0.00000000	         -0.39665900	          0.00000000	       -122.42432000	        840.70798700	         23.58609000	          0.88485400	          0.00600000	         -0.28846200	          0.00000000	          1.00260500	          0.00000000	
          0.73150000	          1.33272600	         33.14144200	         -1.26757600	          0.40720900	          0.00600000	         -0.15046000	          0.00000000	         -0.38469900	          0.00000000	       -122.20037600	        840.67987900	         23.64124500	          0.88499900	          0.00600000	         -0.28847500	          0.00000000	          1.00416400	          0.00000000	
          0.73200000	          1.17941500	         32.18971900	         -1.26281200	          0.40911300	          0.00600000	         -0.15035000	          0.00000000	         -0.37277200	          0.00000000	       -121.97374500	        840.63931400	         23.69577500	          0.88514300	          0.00600000	         -0.28848800	          0.00000000	          1.00573200	          0.00000000	
          0.73250000	          1.02862100	         31.24958600	         -1.25789600	          0.41109900	          0.00600000	         -0.15023600	          0.00000000	         -0.36087700	          0.00000000	       -121.74446000	        840.58638300	         23.74968800	          0.88528800	          0.00600000	         -0.28850100	          0.00000000	          1.00731100	          0.00000000	
          0.73300000	          0.88032500	         30.32098400	         -1.25283100	          0.41317100	          0.00600000	         -0.15011500	          0.00000000	         -0.34900800	          0.00000000	       -121.51255400	        840.52117600	         23.80298700	          0.88543300	          0.00600000	         -0.28851300	          0.00000000	          1.00890100	          0.00000000	
          0.73350000	          0.73450800	         29.40385500	         -1.24762000	          0.41533700	          0.00600000	         -0.14998900	          0.00000000	         -0.33716200	          0.00000000	       -121.27806100	        840.44378600	         23.85567800	          0.88557700	          0.00600000	         -0.28852600	          0.00000000	          1.01050200	          0.00000000	
          0.73400000	          0.59114900	         28.49813800	         -1.24226600	          0.41760300	          0.00600000	         -0.14985600	          0.00000000	         -0.32533500	          0.00000000	       -121.04101400	        840.35430600	         23.90776700	          0.88572200	          0.00600000	         -0.28854000	          0.00000000	          1.01211500	          0.00000000	
          0.73450000	          0.45022700	         27.60377400	         -1.23677300	          0.41997600	          0.00600000	         -0.14971600	          0.00000000	         -0.31352000	          0.00000000	       -120.80144500	        840.25283100	         23.95925800	          0.88586700	          0.00600000	         -0.28855300	          0.00000000	          1.01374000	          0.00000000	
          0.73500000	          0.31172300	         26.72070300	         -1.23114300	          0.42246400	          0.00600000	         -0.14956900	          0.00000000	         -0.30171400	          0.00000000	       -120.55938700	        840.13945400	         24.01015600	          0.88601100	          0.00600000	         -0.28856600	          0.00000000	          1.01537800	          0.00000000	
          0.73550000	          0.17561600	         25.84886300	         -1.22538000	          0.42507600	          0.00600000	         -0.14941400	          0.00000000	         -0.28990800	          0.00000000	       -120.31487500	        840.01427000	         24.06046600	          0.88615600	          0.00600000	         -0.28857900	          0.00000000	          1.01702900	          0.00000000	
          0.73600000	          0.04188400	         24.98819200	         -1.21948600	          0.42782300	          0.00600000	         -0.14925000	          0.00000000	         -0.27809700	          0.00000000	       -120.06793900	        839.87737500	         24.11019300	          0.88630000	          0.00600000	         -0.28859300	          0.00000000	          1.01869400	          0.00000000	
